<svg width="14" height="14" viewBox="0 0 14 14" fill="none" xmlns="http://www.w3.org/2000/svg">
<g clip-path="url(#clip0_1_1364)">
<path opacity="0.4" d="M11.375 7.4375C11.2019 7.4375 11.0328 7.48882 10.8889 7.58496C10.745 7.68111 10.6328 7.81777 10.5666 7.97765C10.5004 8.13754 10.4831 8.31347 10.5168 8.4832C10.5506 8.65294 10.6339 8.80885 10.7563 8.93122C10.8787 9.05359 11.0346 9.13692 11.2043 9.17069C11.374 9.20445 11.55 9.18712 11.7098 9.12089C11.8697 9.05467 12.0064 8.94252 12.1025 8.79862C12.1987 8.65473 12.25 8.48556 12.25 8.3125C12.25 8.08044 12.1578 7.85788 11.9937 7.69378C11.8296 7.52969 11.6071 7.4375 11.375 7.4375ZM11.8125 0.875H1.75C1.28587 0.875 0.840752 1.05937 0.512563 1.38756C0.184374 1.71575 0 2.16087 0 2.625C0 2.85706 0.0921872 3.07962 0.256282 3.24372C0.420376 3.40781 0.642936 3.5 0.875 3.5H2.1875C2.07147 3.5 1.96019 3.45391 1.87814 3.37186C1.79609 3.28981 1.75 3.17853 1.75 3.0625C1.75 2.94647 1.79609 2.83519 1.87814 2.75314C1.96019 2.67109 2.07147 2.625 2.1875 2.625H12.6875C12.8035 2.625 12.9148 2.57891 12.9969 2.49686C13.0789 2.41481 13.125 2.30353 13.125 2.1875C13.125 1.8394 12.9867 1.50556 12.7406 1.25942C12.4944 1.01328 12.1606 0.875 11.8125 0.875Z" fill="#5661FF"/>
<path d="M12.6109 3.5H0.875C0.642936 3.5 0.420376 3.40781 0.256282 3.24372C0.0921872 3.07962 0 2.85706 0 2.625V11.375C0 11.8391 0.184374 12.2842 0.512563 12.6124C0.840752 12.9406 1.28587 13.125 1.75 13.125H12.6109C13.3766 13.125 14 12.5363 14 11.8125V4.8125C14 4.08871 13.3771 3.5 12.6109 3.5ZM11.375 9.1875C11.2019 9.1875 11.0328 9.13618 10.8889 9.04004C10.745 8.94389 10.6328 8.80723 10.5666 8.64735C10.5004 8.48746 10.4831 8.31153 10.5168 8.1418C10.5506 7.97206 10.6339 7.81615 10.7563 7.69378C10.8787 7.57141 11.0346 7.48807 11.2043 7.45431C11.374 7.42055 11.55 7.43788 11.7098 7.50411C11.8697 7.57033 12.0064 7.68248 12.1025 7.82638C12.1987 7.97027 12.25 8.13944 12.25 8.3125C12.25 8.54456 12.1578 8.76712 11.9937 8.93122C11.8296 9.09531 11.6071 9.1875 11.375 9.1875Z" fill="#5661FF"/>
</g>
<defs>
<clipPath id="clip0_1_1364">
<rect width="14" height="14" fill="white"/>
</clipPath>
</defs>
</svg>
