<svg width="13" height="14" viewBox="0 0 13 14" fill="none" xmlns="http://www.w3.org/2000/svg">
<path opacity="0.4" d="M9.625 3.5C9.625 4.19223 9.41973 4.86892 9.03514 5.4445C8.65056 6.02007 8.10394 6.46867 7.46439 6.73358C6.82485 6.99849 6.12112 7.0678 5.44219 6.93275C4.76325 6.7977 4.13961 6.46436 3.65013 5.97487C3.16064 5.48539 2.8273 4.86175 2.69225 4.18282C2.5572 3.50388 2.62652 2.80015 2.89142 2.16061C3.15633 1.52107 3.60493 0.974441 4.18051 0.589856C4.75608 0.205271 5.43277 0 6.125 0C7.05326 0 7.9435 0.368749 8.59988 1.02513C9.25625 1.6815 9.625 2.57174 9.625 3.5Z" fill="#5661FF"/>
<path d="M8.575 7.875H8.11836C7.49334 8.16319 6.81326 8.31243 6.125 8.31243C5.43674 8.31243 4.75666 8.16319 4.13164 7.875H3.675C2.7004 7.87522 1.76577 8.26247 1.07662 8.95162C0.387474 9.64077 0.000217473 10.5754 0 11.55L0 12.6875C0 13.0356 0.138281 13.3694 0.384422 13.6156C0.630564 13.8617 0.964403 14 1.3125 14H10.9375C11.2856 14 11.6194 13.8617 11.8656 13.6156C12.1117 13.3694 12.25 13.0356 12.25 12.6875V11.55C12.2498 10.5754 11.8625 9.64077 11.1734 8.95162C10.4842 8.26247 9.5496 7.87522 8.575 7.875Z" fill="#5661FF"/>
</svg>
